<?xml version="1.0" encoding="utf-8"?>
<!-- Generator: Adobe Illustrator 23.1.1, SVG Export Plug-In . SVG Version: 6.00 Build 0)  -->
<svg version="1.1" id="Capa_1" xmlns="http://www.w3.org/2000/svg" xmlns:xlink="http://www.w3.org/1999/xlink" x="0px" y="0px"
	 viewBox="0 0 841.89 595.28" style="enable-background:new 0 0 841.89 595.28;" xml:space="preserve">
<style type="text/css">
	.st0{fill:#20A29B;}
	.st1{fill:#FFFFFF;}
</style>
<polygon class="st0" points="373.23,269.42 76.41,269.42 38.37,226.9 38.37,119.54 337.73,119.54 373.23,157.91 "/>
<g>
	<path class="st1" d="M113.93,141.01c0.31-0.94,0.79-1.57,1.73-1.57h2.05c0.94,0,1.42,0.63,1.73,1.57l37.47,103.92
		c0.31,0.94-0.16,1.57-1.1,1.57h-2.2c-0.94,0-1.57-0.31-2.05-1.57l-10.39-29.13H91.88l-10.55,29.13c-0.47,1.26-1.1,1.57-2.05,1.57
		h-2.05c-0.94,0-1.42-0.63-1.1-1.57L113.93,141.01z M139.44,211.23l-22.67-63.45h-0.31l-22.99,63.45H139.44z"/>
	<path class="st1" d="M243.51,246.5c-0.94,0-1.42-0.31-1.89-1.42l-23.46-48.81c-1.42,0.16-2.83,0.16-4.25,0.16h-29.29
		c-0.63,0-0.94,0.31-0.94,0.94v47.55c0,0.94-0.63,1.57-1.57,1.57h-1.73c-0.94,0-1.57-0.63-1.57-1.57V141.01
		c0-0.94,0.63-1.57,1.57-1.57h33.54c20.31,0,31.96,10.39,31.96,28.5c0,15.12-8.19,24.88-22.83,27.71l23.93,49.28
		c0.47,0.79,0.16,1.57-0.79,1.57H243.51z M240.99,167.93c0-15.59-9.29-23.93-27.08-23.93h-29.29c-0.63,0-0.94,0.31-0.94,0.94v45.98
		c0,0.63,0.31,0.94,0.94,0.94h29.29C231.7,191.86,240.99,183.52,240.99,167.93z"/>
	<path class="st1" d="M302.87,141.01c0.31-0.94,0.79-1.57,1.73-1.57h2.05c0.94,0,1.42,0.63,1.73,1.57l37.47,103.92
		c0.31,0.94-0.16,1.57-1.1,1.57h-2.2c-0.94,0-1.57-0.31-2.05-1.57l-10.39-29.13h-49.28l-10.55,29.13c-0.47,1.26-1.1,1.57-2.05,1.57
		h-2.05c-0.94,0-1.42-0.63-1.1-1.57L302.87,141.01z M328.37,211.23l-22.67-63.45h-0.31l-22.99,63.45H328.37z"/>
</g>
<g>
	<path d="M456.79,222.88c-1.98,8.38-5.76,14.82-11.33,19.32c-5.74,4.46-12.53,6.69-20.37,6.69c-7.1-0.17-13.03-1.9-17.77-5.2
		c-4.83-3.18-8.34-6.85-10.53-11.02c-0.66-1.36-1.26-2.66-1.8-3.9c-0.49-1.28-0.91-2.89-1.24-4.83c-0.62-3.63-0.93-29.37-0.93-39.7
		c0-10.49,0.31-17.5,0.93-21.05c0.66-3.55,1.67-6.42,3.03-8.61c2.19-4.17,5.7-7.88,10.53-11.15c4.75-3.3,10.67-4.99,17.77-5.08
		c8.71,0.08,15.81,2.66,21.3,7.74c5.49,5.12,8.96,11.46,10.4,19.01H442.3c-1.12-3.63-3.14-6.73-6.07-9.29
		c-3.06-2.44-6.77-3.69-11.15-3.78c-3.22,0.08-5.99,0.72-8.3,1.92c-2.35,1.24-4.25,2.79-5.7,4.64c-1.78,1.94-2.95,4.44-3.53,7.49
		c-0.66,3.22-0.99,9.27-0.99,18.14c0,8.88,0.33,33.65,0.99,36.78c0.58,3.14,1.75,5.68,3.53,7.62c1.44,1.86,3.34,3.37,5.7,4.52
		c2.31,1.36,5.08,2.04,8.3,2.04c7.68,0,13.42-4.11,17.22-12.32H456.79z"/>
	<path d="M462.74,165.1h12.94v57.03c0,4.33,1.22,7.72,3.65,10.16c2.39,2.44,5.45,3.65,9.17,3.65c3.71,0,6.75-1.22,9.1-3.65
		c2.39-2.44,3.59-5.82,3.59-10.16V165.1h12.94v83.04h-12.94v-6.87h-0.25c-4.25,5.08-9.8,7.62-16.66,7.62
		c-5.33-0.08-10.14-2.02-14.43-5.82c-4.67-3.72-7.04-9.21-7.12-16.47V165.1z"/>
	<path d="M528.32,139.1h12.94v92.46c0,2.93,1.61,4.4,4.83,4.4h4.46v12.2h-5.76c-4.71,0-8.59-1.18-11.64-3.53
		c-3.22-2.39-4.83-6.42-4.83-12.08V139.1z"/>
	<path d="M559.22,145.54h12.94v19.57h9.41v9.85h-9.41v56.23c-0.08,3.26,1.44,4.85,4.58,4.77h4.83v12.2h-6.75
		c-4.54,0-8.26-1.4-11.15-4.21c-2.97-2.68-4.46-6.56-4.46-11.64v-57.34h-6.44v-9.85h6.44V145.54z"/>
	<path d="M591.18,165.1h12.94v57.03c0,4.33,1.22,7.72,3.65,10.16c2.39,2.44,5.45,3.65,9.17,3.65c3.71,0,6.75-1.22,9.1-3.65
		c2.39-2.44,3.59-5.82,3.59-10.16V165.1h12.94v83.04h-12.94v-6.87h-0.25c-4.25,5.08-9.8,7.62-16.66,7.62
		c-5.33-0.08-10.14-2.02-14.43-5.82c-4.67-3.72-7.04-9.21-7.12-16.47V165.1z"/>
	<path d="M656.76,165.1h12.94v6.81h0.25c4.25-5.08,9.83-7.62,16.72-7.62c5.16,0.08,9.66,1.73,13.5,4.95l-9.41,11.21
		c-2.72-2.15-5.55-3.22-8.48-3.22c-3.3,0-6.13,1.07-8.48,3.22c-2.64,2.11-4.01,5.51-4.09,10.22v57.47h-12.94V165.1z"/>
	<path d="M735.04,242.45h-0.25c-1.2,2.19-3.06,3.8-5.57,4.83c-2.48,1.07-5.91,1.61-10.28,1.61c-7.18-0.08-12.72-1.98-16.6-5.7
		c-4.09-3.63-6.13-8.28-6.13-13.93c0-0.14,0-9.97,0-10.11c0.09-5.22,1.87-9.55,5.32-13.01c3.55-3.63,8.75-5.49,15.61-5.57h17.9
		v-15.83c0.08-5.66-4.32-8.4-13.19-8.24c-3.22,0-5.76,0.33-7.62,0.99c-1.94,0.78-3.47,2.11-4.58,3.96l-10.16-7.74
		c4.91-6.44,12.16-9.58,21.74-9.41c8.09-0.08,14.55,1.45,19.38,4.58c4.83,3.22,7.29,8.75,7.37,14.18v62.67l-12.94,2.41V242.45z
		 M735.04,211.22h-15.48c-7.51,0.17-11.23,2.75-11.15,7.74c0,0.15,0,9.99,0.01,10.14c0.13,1.99,1.09,3.7,2.9,5.12
		c1.86,1.69,4.93,2.54,9.23,2.54c5.41,0.08,9.23-0.56,11.45-1.92c2.02-1.36,3.03-4.46,3.03-9.29V211.22z"/>
</g>
<g>
	<polygon points="800.91,424.73 404.58,424.73 372.31,388.68 372.31,269.82 770.81,269.82 800.91,302.36 	"/>
	<path class="st1" d="M492.86,401.03h-17.65l-3.03-20.2h-21.47l-3.02,20.2h-16.06l17.81-111.33h25.61L492.86,401.03z M452.93,365.73
		h16.86l-8.42-56.3L452.93,365.73z"/>
	<path class="st1" d="M500.97,289.7h27.67c17.5,0,26.08,9.7,26.08,27.51v56.3c0,17.81-8.59,27.52-26.08,27.52h-27.67V289.7z
		 M518.47,305.6v79.52h9.86c5.57,0,8.9-2.86,8.9-10.81v-57.89c0-7.96-3.33-10.82-8.9-10.82H518.47z"/>
	<path class="st1" d="M583.35,401.03h-17.5V289.7h17.5v47.71h19.87V289.7h17.81v111.33h-17.81v-47.71h-19.87V401.03z"/>
	<path class="st1" d="M632.34,316.42c0-17.81,9.38-27.99,26.55-27.99c17.17,0,26.56,10.18,26.56,27.99v57.89
		c0,17.81-9.39,27.99-26.56,27.99c-17.17,0-26.55-10.18-26.55-27.99V316.42z M649.83,375.43c0,7.95,3.49,10.97,9.06,10.97
		c5.57,0,9.07-3.03,9.07-10.97v-60.12c0-7.96-3.49-10.98-9.07-10.98c-5.57,0-9.06,3.02-9.06,10.98V375.43z"/>
	<path class="st1" d="M747.47,359.52v14.8c0,17.81-8.9,27.99-26.08,27.99s-26.08-10.18-26.08-27.99v-57.89
		c0-17.81,8.9-27.99,26.08-27.99s26.08,10.18,26.08,27.99v10.81h-16.54v-11.92c0-7.96-3.5-10.98-9.07-10.98s-9.07,3.02-9.07,10.98
		v60.12c0,7.95,3.5,10.81,9.07,10.81s9.07-2.86,9.07-10.81v-15.91H747.47z"/>
	<polygon points="407.87,445.31 374.14,411.57 374.14,445.31 	"/>
	<polygon points="771.75,253.13 805.49,286.87 805.49,253.13 	"/>
</g>
</svg>
