<?xml version="1.0" encoding="utf-8"?>
<!-- Generator: Adobe Illustrator 16.0.0, SVG Export Plug-In . SVG Version: 6.00 Build 0)  -->
<!DOCTYPE svg PUBLIC "-//W3C//DTD SVG 1.1//EN" "http://www.w3.org/Graphics/SVG/1.1/DTD/svg11.dtd">
<svg version="1.1" id="Capa_1" xmlns="http://www.w3.org/2000/svg" xmlns:xlink="http://www.w3.org/1999/xlink" x="0px" y="0px"
	 width="425.197px" height="283.465px" viewBox="0 0 425.197 283.465" enable-background="new 0 0 425.197 283.465"
	 xml:space="preserve">
<g>
	<g>
		<polygon fill="#70A83B" points="200.88,135.105 69.01,135.105 52.105,116.213 52.105,68.512 185.112,68.512 200.88,85.56 		"/>
		<g>
			<path fill="#FFFFFF" d="M85.673,78.055c0.14-0.419,0.35-0.699,0.77-0.699h0.909c0.42,0,0.63,0.28,0.77,0.699l16.647,46.165
				c0.14,0.419-0.07,0.699-0.49,0.699h-0.979c-0.419,0-0.699-0.14-0.909-0.699l-4.617-12.94H75.88l-4.686,12.94
				c-0.21,0.56-0.49,0.699-0.91,0.699h-0.909c-0.419,0-0.629-0.28-0.49-0.699L85.673,78.055z M97.004,109.251L86.932,81.062h-0.14
				L76.58,109.251H97.004z"/>
			<path fill="#FFFFFF" d="M143.242,124.919c-0.419,0-0.629-0.14-0.839-0.629l-10.422-21.684c-0.629,0.07-1.259,0.07-1.889,0.07
				h-13.01c-0.28,0-0.42,0.14-0.42,0.42v21.124c0,0.419-0.28,0.699-0.699,0.699h-0.77c-0.419,0-0.7-0.28-0.7-0.699V78.055
				c0-0.419,0.28-0.699,0.7-0.699h14.898c9.023,0,14.199,4.616,14.199,12.66c0,6.715-3.637,11.052-10.142,12.311l10.632,21.894
				c0.21,0.35,0.07,0.699-0.35,0.699H143.242z M142.123,90.016c0-6.925-4.127-10.632-12.031-10.632h-13.01
				c-0.28,0-0.42,0.14-0.42,0.42v20.424c0,0.28,0.14,0.419,0.42,0.419h13.01C137.996,100.647,142.123,96.94,142.123,90.016z"/>
			<path fill="#FFFFFF" d="M169.616,78.055c0.14-0.419,0.35-0.699,0.77-0.699h0.909c0.42,0,0.629,0.28,0.77,0.699l16.647,46.165
				c0.14,0.419-0.07,0.699-0.489,0.699h-0.979c-0.419,0-0.699-0.14-0.909-0.699l-4.616-12.94h-21.894l-4.687,12.94
				c-0.209,0.56-0.489,0.699-0.909,0.699h-0.909c-0.42,0-0.629-0.28-0.49-0.699L169.616,78.055z M180.947,109.251l-10.072-28.188
				h-0.14l-10.212,28.188H180.947z"/>
		</g>
		<g>
			<path d="M238.006,114.426c-0.88,3.724-2.559,6.585-5.036,8.584c-2.548,1.981-5.566,2.972-9.051,2.972
				c-3.154-0.074-5.787-0.844-7.896-2.312c-2.146-1.413-3.705-3.044-4.677-4.897c-0.294-0.605-0.56-1.184-0.798-1.733
				c-0.22-0.569-0.404-1.284-0.551-2.146c-0.274-1.614-0.412-13.051-0.412-17.637c0-4.658,0.138-7.777,0.412-9.354
				c0.294-1.578,0.744-2.853,1.349-3.825c0.972-1.853,2.53-3.503,4.677-4.952c2.109-1.467,4.742-2.219,7.896-2.256
				c3.87,0.037,7.025,1.183,9.465,3.439c2.439,2.274,3.98,5.09,4.622,8.446h-6.438c-0.496-1.613-1.396-2.99-2.696-4.127
				c-1.357-1.082-3.009-1.641-4.953-1.678c-1.43,0.037-2.66,0.321-3.687,0.853c-1.046,0.55-1.89,1.238-2.53,2.063
				c-0.789,0.862-1.312,1.972-1.569,3.329c-0.294,1.431-0.44,4.118-0.44,8.062c0,3.944,0.146,14.95,0.44,16.343
				c0.257,1.395,0.78,2.522,1.569,3.384c0.641,0.826,1.484,1.496,2.53,2.009c1.026,0.605,2.257,0.908,3.687,0.908
				c3.412,0,5.96-1.825,7.649-5.476H238.006z"/>
			<path d="M240.649,88.756h5.749v25.34c0,1.926,0.542,3.43,1.623,4.512c1.063,1.082,2.423,1.623,4.073,1.623
				s2.999-0.542,4.044-1.623c1.063-1.082,1.595-2.586,1.595-4.512v-25.34h5.75v36.896h-5.75v-3.054h-0.109
				c-1.889,2.256-4.355,3.385-7.401,3.385c-2.366-0.037-4.502-0.899-6.41-2.587c-2.072-1.65-3.127-4.09-3.163-7.318V88.756z"/>
			<path d="M269.786,77.201h5.75v41.077c0,1.303,0.715,1.954,2.146,1.954h1.98v5.42h-2.559c-2.092,0-3.816-0.522-5.174-1.568
				c-1.43-1.064-2.145-2.853-2.145-5.366V77.201z"/>
			<path d="M283.515,80.062h5.75v8.694h4.184v4.375h-4.184v24.982c-0.035,1.449,0.643,2.156,2.037,2.119h2.146v5.42h-3
				c-2.016,0-3.666-0.624-4.951-1.871c-1.32-1.192-1.982-2.917-1.982-5.172V93.131h-2.861v-4.375h2.861V80.062z"/>
			<path d="M297.714,88.756h5.75v25.34c0,1.926,0.541,3.43,1.623,4.512c1.064,1.082,2.422,1.623,4.072,1.623
				s2.998-0.542,4.045-1.623c1.062-1.082,1.596-2.586,1.596-4.512v-25.34h5.75v36.896h-5.75v-3.054h-0.111
				c-1.889,2.256-4.355,3.385-7.4,3.385c-2.367-0.037-4.502-0.899-6.41-2.587c-2.074-1.65-3.127-4.09-3.164-7.318V88.756z"/>
			<path d="M326.851,88.756h5.75v3.026h0.109c1.889-2.256,4.367-3.384,7.43-3.384c2.291,0.038,4.293,0.771,5.998,2.202l-4.184,4.979
				c-1.209-0.954-2.467-1.43-3.768-1.43c-1.469,0-2.725,0.477-3.77,1.43c-1.174,0.936-1.779,2.449-1.816,4.54v25.532h-5.75V88.756z"
				/>
			<path d="M361.628,123.12h-0.109c-0.531,0.973-1.357,1.688-2.475,2.147c-1.102,0.476-2.625,0.715-4.568,0.715
				c-3.191-0.037-5.65-0.881-7.375-2.532c-1.814-1.613-2.723-3.677-2.723-6.19c0-0.063,0-4.43,0.002-4.493
				c0.041-2.317,0.828-4.245,2.365-5.779c1.576-1.614,3.889-2.44,6.932-2.477h7.951v-7.033c0.037-2.513-1.916-3.733-5.859-3.659
				c-1.432,0-2.559,0.146-3.385,0.44c-0.861,0.349-1.541,0.936-2.035,1.76l-4.512-3.439c2.182-2.861,5.4-4.255,9.656-4.182
				c3.594-0.037,6.467,0.643,8.611,2.036c2.145,1.431,3.238,3.889,3.275,6.302v27.843l-5.752,1.072V123.12z M361.628,109.244h-6.877
				c-3.338,0.074-4.988,1.22-4.953,3.439c0,0.068,0.004,4.437,0.006,4.503c0.057,0.886,0.486,1.644,1.287,2.275
				c0.824,0.752,2.191,1.128,4.1,1.128c2.402,0.037,4.1-0.248,5.09-0.853c0.9-0.605,1.348-1.981,1.348-4.127V109.244z"/>
		</g>
		<g>
			<polygon points="390.894,204.106 214.81,204.106 200.474,188.087 200.474,135.279 377.519,135.279 390.894,149.737 			"/>
			<path fill="#FFFFFF" d="M254.032,193.575h-7.842l-1.346-8.973h-9.54l-1.343,8.973h-7.136l7.915-49.46h11.377L254.032,193.575z
				 M236.293,177.89h7.492l-3.743-25.014L236.293,177.89z"/>
			<path fill="#FFFFFF" d="M257.638,144.115h12.293c7.771,0,11.586,4.31,11.586,12.222v25.014c0,7.914-3.814,12.225-11.586,12.225
				h-12.293V144.115z M265.409,151.179v35.33h4.381c2.473,0,3.953-1.271,3.953-4.803v-25.721c0-3.534-1.48-4.807-3.953-4.807
				H265.409z"/>
			<path fill="#FFFFFF" d="M294.237,193.575h-7.771v-49.46h7.771v21.196h8.83v-21.196h7.914v49.46h-7.914v-21.196h-8.83V193.575z"/>
			<path fill="#FFFFFF" d="M316.001,155.985c0-7.914,4.168-12.438,11.797-12.438s11.801,4.523,11.801,12.438v25.721
				c0,7.912-4.172,12.436-11.801,12.436s-11.797-4.523-11.797-12.436V155.985z M323.774,182.2c0,3.531,1.549,4.875,4.023,4.875
				c2.477,0,4.029-1.344,4.029-4.875v-26.709c0-3.535-1.553-4.877-4.029-4.877c-2.475,0-4.023,1.342-4.023,4.877V182.2z"/>
			<path fill="#FFFFFF" d="M367.153,175.132v6.574c0,7.912-3.955,12.436-11.588,12.436c-7.631,0-11.588-4.523-11.588-12.436v-25.721
				c0-7.914,3.957-12.438,11.588-12.438c7.633,0,11.588,4.523,11.588,12.438v4.803h-7.346v-5.297c0-3.535-1.557-4.877-4.027-4.877
				c-2.473,0-4.027,1.342-4.027,4.877V182.2c0,3.531,1.555,4.803,4.027,4.803c2.471,0,4.027-1.271,4.027-4.803v-7.068H367.153z"/>
			<polygon points="216.274,213.247 201.287,198.259 201.287,213.247 			"/>
			<polygon points="377.94,127.865 392.929,142.854 392.929,127.865 			"/>
		</g>
	</g>
	<g>
		<path fill="#70A83B" d="M102.086,141.408c0-0.161,0.107-0.268,0.268-0.268h10.417c0.161,0,0.268,0.107,0.268,0.268v0.91
			c0,0.161-0.107,0.268-0.268,0.268h-8.998c-0.107,0-0.161,0.053-0.161,0.161v6.48c0,0.107,0.054,0.161,0.161,0.161h7.739
			c0.161,0,0.268,0.106,0.268,0.268v0.91c0,0.161-0.107,0.269-0.268,0.269h-7.739c-0.107,0-0.161,0.053-0.161,0.16v6.748
			c0,0.107,0.054,0.161,0.161,0.161h8.998c0.161,0,0.268,0.107,0.268,0.268v0.911c0,0.16-0.107,0.268-0.268,0.268h-10.417
			c-0.161,0-0.268-0.107-0.268-0.268V141.408z"/>
		<path fill="#70A83B" d="M116.785,143.176c-0.161,0-0.268-0.107-0.268-0.268v-1.5c0-0.161,0.107-0.268,0.268-0.268h1.178
			c0.161,0,0.268,0.107,0.268,0.268v1.5c0,0.16-0.107,0.268-0.268,0.268H116.785z M116.919,159.351
			c-0.161,0-0.268-0.107-0.268-0.268v-12.238c0-0.161,0.107-0.268,0.268-0.268h0.911c0.161,0,0.268,0.106,0.268,0.268v12.238
			c0,0.16-0.107,0.268-0.268,0.268H116.919z"/>
		<path fill="#70A83B" d="M131.297,159.351c-0.161,0-0.268-0.107-0.268-0.268v-7.552c0-2.545-1.125-3.83-3.347-3.83
			c-1.955,0-3.481,1.339-3.481,3.562v7.82c0,0.16-0.107,0.268-0.268,0.268h-0.911c-0.161,0-0.268-0.107-0.268-0.268v-12.238
			c0-0.161,0.107-0.268,0.268-0.268h0.911c0.161,0,0.268,0.106,0.268,0.268v1.526h0.027c0.643-1.259,1.981-2.062,3.776-2.062
			c2.838,0,4.472,1.768,4.472,4.874v7.9c0,0.16-0.107,0.268-0.268,0.268H131.297z"/>
		<path fill="#70A83B" d="M136.489,156.244c-0.241-0.776-0.375-1.66-0.375-3.294c0-1.606,0.134-2.544,0.375-3.32
			c0.696-2.143,2.437-3.321,4.74-3.321c2.303,0,4.07,1.179,4.767,3.321c0.268,0.803,0.375,1.633,0.375,3.4
			c0,0.161-0.107,0.268-0.294,0.268h-8.329c-0.107,0-0.161,0.081-0.161,0.188c0,1.071,0.081,1.661,0.268,2.25
			c0.589,1.687,1.875,2.49,3.615,2.49c1.661,0,2.812-0.696,3.562-1.634c0.107-0.134,0.241-0.16,0.375-0.054l0.616,0.562
			c0.134,0.107,0.134,0.241,0.027,0.375c-0.938,1.259-2.544,2.143-4.66,2.143C138.899,159.618,137.212,158.439,136.489,156.244z
			 M144.737,152.066c0.107,0,0.161-0.054,0.161-0.161c0-0.776-0.08-1.339-0.241-1.848c-0.509-1.58-1.741-2.41-3.428-2.41
			c-1.661,0-2.892,0.83-3.401,2.41c-0.161,0.509-0.241,1.071-0.241,1.848c0,0.107,0.054,0.161,0.161,0.161H144.737z"/>
		<path fill="#70A83B" d="M149.152,157.824c-0.107-0.107-0.107-0.269,0-0.375l0.589-0.67c0.107-0.106,0.268-0.08,0.375,0
			c0.991,0.804,2.41,1.5,4.151,1.5c2.223,0,3.32-0.991,3.32-2.464c0-1.285-0.562-1.981-2.919-2.249l-1.285-0.134
			c-2.383-0.241-3.723-1.393-3.723-3.401c0-2.33,1.688-3.723,4.499-3.723c1.741,0,3.24,0.562,4.258,1.232
			c0.134,0.106,0.134,0.268,0.054,0.375l-0.482,0.643c-0.081,0.134-0.241,0.16-0.375,0.08c-0.83-0.482-2.196-0.991-3.535-0.991
			c-1.955,0-2.973,0.857-2.973,2.276c0,1.259,0.776,1.929,2.946,2.143l1.285,0.134c2.491,0.241,3.696,1.446,3.696,3.428
			c0,2.437-1.714,3.99-4.901,3.99C151.831,159.618,150.144,158.654,149.152,157.824z"/>
		<path fill="#70A83B" d="M177.185,159.351c-0.161,0-0.268-0.107-0.268-0.268v-1.554h-0.027c-0.616,1.205-1.768,2.089-3.883,2.089
			c-2.25,0-3.696-1.018-4.338-3.053c-0.348-1.045-0.455-2.169-0.455-3.589c0-1.445,0.107-2.57,0.455-3.615
			c0.643-2.035,2.089-3.053,4.338-3.053c2.115,0,3.267,0.884,3.883,2.089h0.027v-6.989c0-0.161,0.107-0.268,0.268-0.268h0.911
			c0.161,0,0.268,0.107,0.268,0.268v17.675c0,0.16-0.107,0.268-0.268,0.268H177.185z M176.569,155.977
			c0.241-0.696,0.348-1.607,0.348-3s-0.107-2.329-0.348-3.025c-0.482-1.5-1.66-2.25-3.267-2.25c-1.66,0-2.785,0.804-3.267,2.25
			c-0.268,0.803-0.348,1.874-0.348,3.025c0,1.125,0.081,2.196,0.348,3c0.482,1.445,1.607,2.249,3.267,2.249
			C174.909,158.226,176.087,157.476,176.569,155.977z"/>
		<path fill="#70A83B" d="M182.538,156.244c-0.241-0.776-0.375-1.66-0.375-3.294c0-1.606,0.134-2.544,0.375-3.32
			c0.696-2.143,2.437-3.321,4.74-3.321c2.303,0,4.07,1.179,4.767,3.321c0.268,0.803,0.375,1.633,0.375,3.4
			c0,0.161-0.107,0.268-0.294,0.268h-8.329c-0.107,0-0.161,0.081-0.161,0.188c0,1.071,0.081,1.661,0.268,2.25
			c0.589,1.687,1.875,2.49,3.615,2.49c1.661,0,2.812-0.696,3.562-1.634c0.107-0.134,0.241-0.16,0.375-0.054l0.616,0.562
			c0.134,0.107,0.134,0.241,0.027,0.375c-0.938,1.259-2.544,2.143-4.66,2.143C184.948,159.618,183.261,158.439,182.538,156.244z
			 M190.786,152.066c0.107,0,0.161-0.054,0.161-0.161c0-0.776-0.08-1.339-0.241-1.848c-0.509-1.58-1.741-2.41-3.428-2.41
			c-1.661,0-2.892,0.83-3.401,2.41c-0.161,0.509-0.241,1.071-0.241,1.848c0,0.107,0.054,0.161,0.161,0.161H190.786z"/>
		<path fill="#70A83B" d="M68.033,171.94c0.669-2.089,2.41-3.32,4.767-3.32c2.009,0,3.375,0.856,4.312,2.41
			c0.081,0.134,0.054,0.268-0.08,0.348l-0.75,0.482c-0.134,0.08-0.268,0.026-0.348-0.107c-0.75-1.178-1.633-1.74-3.133-1.74
			c-1.66,0-2.838,0.83-3.347,2.409c-0.241,0.696-0.348,1.554-0.348,2.866c0,1.312,0.107,2.142,0.348,2.838
			c0.509,1.58,1.687,2.41,3.347,2.41c1.5,0,2.384-0.562,3.133-1.74c0.081-0.134,0.214-0.188,0.348-0.107l0.75,0.482
			c0.134,0.08,0.161,0.214,0.08,0.348c-0.937,1.554-2.303,2.41-4.312,2.41c-2.356,0-4.097-1.231-4.767-3.32
			c-0.241-0.804-0.401-1.794-0.401-3.32S67.792,172.744,68.033,171.94z"/>
		<path fill="#70A83B" d="M80.241,178.608c-0.268-0.857-0.428-1.794-0.428-3.348c0-1.526,0.161-2.464,0.428-3.32
			c0.696-2.115,2.437-3.32,4.767-3.32c2.357,0,4.097,1.205,4.793,3.32c0.268,0.856,0.429,1.794,0.429,3.32
			c0,1.554-0.161,2.49-0.429,3.348c-0.696,2.115-2.437,3.32-4.793,3.32C82.678,181.929,80.938,180.724,80.241,178.608z
			 M88.409,178.153c0.241-0.724,0.348-1.5,0.348-2.893c0-1.365-0.107-2.143-0.348-2.865c-0.509-1.526-1.74-2.383-3.401-2.383
			c-1.633,0-2.865,0.856-3.374,2.383c-0.241,0.723-0.348,1.5-0.348,2.865c0,1.393,0.107,2.169,0.348,2.893
			c0.509,1.526,1.741,2.383,3.374,2.383C86.668,180.536,87.9,179.68,88.409,178.153z"/>
		<path fill="#70A83B" d="M102.438,181.661c-0.161,0-0.268-0.107-0.268-0.268v-7.552c0-2.544-1.125-3.829-3.347-3.829
			c-1.955,0-3.481,1.339-3.481,3.562v7.819c0,0.16-0.107,0.268-0.268,0.268h-0.911c-0.161,0-0.268-0.107-0.268-0.268v-12.238
			c0-0.16,0.107-0.268,0.268-0.268h0.911c0.161,0,0.268,0.107,0.268,0.268v1.526h0.027c0.643-1.259,1.981-2.062,3.776-2.062
			c2.838,0,4.472,1.768,4.472,4.873v7.9c0,0.16-0.107,0.268-0.268,0.268H102.438z"/>
		<path fill="#70A83B" d="M106.987,180.135c-0.107-0.107-0.107-0.268,0-0.375l0.589-0.67c0.107-0.106,0.268-0.08,0.375,0
			c0.991,0.804,2.41,1.5,4.151,1.5c2.223,0,3.32-0.99,3.32-2.464c0-1.285-0.562-1.981-2.919-2.249l-1.285-0.134
			c-2.383-0.241-3.723-1.393-3.723-3.401c0-2.329,1.688-3.722,4.499-3.722c1.741,0,3.24,0.562,4.258,1.231
			c0.134,0.107,0.134,0.268,0.054,0.375l-0.482,0.643c-0.081,0.134-0.241,0.161-0.375,0.08c-0.83-0.481-2.196-0.99-3.535-0.99
			c-1.955,0-2.973,0.856-2.973,2.275c0,1.259,0.776,1.929,2.946,2.143l1.285,0.134c2.491,0.241,3.696,1.446,3.696,3.428
			c0,2.438-1.714,3.99-4.901,3.99C109.665,181.929,107.978,180.965,106.987,180.135z"/>
		<path fill="#70A83B" d="M124.122,181.741c-2.41,0-3.32-0.937-3.32-3.454v-7.953c0-0.107-0.054-0.161-0.161-0.161h-1.339
			c-0.161,0-0.268-0.106-0.268-0.268v-0.75c0-0.16,0.107-0.268,0.268-0.268h1.339c0.107,0,0.161-0.054,0.161-0.161v-3.668
			c0-0.161,0.107-0.269,0.268-0.269h0.911c0.161,0,0.268,0.107,0.268,0.269v3.668c0,0.107,0.054,0.161,0.161,0.161h2.41
			c0.161,0,0.268,0.107,0.268,0.268v0.75c0,0.161-0.107,0.268-0.268,0.268h-2.41c-0.107,0-0.161,0.054-0.161,0.161v7.873
			c0,1.714,0.589,2.142,2.062,2.142h0.509c0.161,0,0.268,0.107,0.268,0.269v0.856c0,0.161-0.107,0.268-0.268,0.268H124.122z"/>
		<path fill="#70A83B" d="M128.646,181.661c-0.161,0-0.268-0.107-0.268-0.268v-12.238c0-0.16,0.107-0.268,0.268-0.268h0.911
			c0.161,0,0.268,0.107,0.268,0.268v1.634h0.027c0.482-1.259,1.633-2.169,3.428-2.169c1.018,0,1.955,0.348,2.571,0.884
			c0.134,0.08,0.161,0.214,0.054,0.348l-0.536,0.75c-0.107,0.134-0.241,0.134-0.402,0.054c-0.589-0.375-1.232-0.643-2.035-0.643
			c-2.25,0-3.106,1.954-3.106,4.311v7.07c0,0.16-0.107,0.268-0.268,0.268H128.646z"/>
		<path fill="#70A83B" d="M146.8,181.661c-0.161,0-0.268-0.107-0.268-0.268v-1.5h-0.027c-0.643,1.259-1.981,2.035-3.722,2.035
			c-2.838,0-4.418-1.768-4.418-4.847v-7.927c0-0.16,0.107-0.268,0.268-0.268h0.911c0.161,0,0.268,0.107,0.268,0.268v7.552
			c0,2.57,1.071,3.829,3.294,3.829c1.928,0,3.428-1.339,3.428-3.562v-7.819c0-0.16,0.107-0.268,0.268-0.268h0.91
			c0.161,0,0.268,0.107,0.268,0.268v12.238c0,0.16-0.107,0.268-0.268,0.268H146.8z"/>
		<path fill="#70A83B" d="M152.045,171.94c0.669-2.089,2.41-3.32,4.767-3.32c2.009,0,3.375,0.856,4.312,2.41
			c0.081,0.134,0.054,0.268-0.08,0.348l-0.75,0.482c-0.134,0.08-0.268,0.026-0.348-0.107c-0.75-1.178-1.633-1.74-3.133-1.74
			c-1.66,0-2.838,0.83-3.347,2.409c-0.241,0.696-0.348,1.554-0.348,2.866c0,1.312,0.107,2.142,0.348,2.838
			c0.509,1.58,1.687,2.41,3.347,2.41c1.5,0,2.384-0.562,3.133-1.74c0.081-0.134,0.214-0.188,0.348-0.107l0.75,0.482
			c0.134,0.08,0.161,0.214,0.08,0.348c-0.937,1.554-2.303,2.41-4.312,2.41c-2.356,0-4.097-1.231-4.767-3.32
			c-0.241-0.804-0.401-1.794-0.401-3.32S151.804,172.744,152.045,171.94z"/>
		<path fill="#70A83B" d="M164.226,171.94c0.669-2.089,2.41-3.32,4.767-3.32c2.009,0,3.375,0.856,4.312,2.41
			c0.081,0.134,0.054,0.268-0.08,0.348l-0.75,0.482c-0.134,0.08-0.268,0.026-0.348-0.107c-0.75-1.178-1.633-1.74-3.133-1.74
			c-1.66,0-2.838,0.83-3.347,2.409c-0.241,0.696-0.348,1.554-0.348,2.866c0,1.312,0.107,2.142,0.348,2.838
			c0.509,1.58,1.687,2.41,3.347,2.41c1.5,0,2.384-0.562,3.133-1.74c0.081-0.134,0.214-0.188,0.348-0.107l0.75,0.482
			c0.134,0.08,0.161,0.214,0.08,0.348c-0.937,1.554-2.303,2.41-4.312,2.41c-2.356,0-4.097-1.231-4.767-3.32
			c-0.241-0.804-0.401-1.794-0.401-3.32S163.985,172.744,164.226,171.94z"/>
		<path fill="#70A83B" d="M176.997,165.486c-0.161,0-0.268-0.106-0.268-0.268v-1.499c0-0.161,0.107-0.269,0.268-0.269h1.178
			c0.161,0,0.268,0.107,0.268,0.269v1.499c0,0.161-0.107,0.268-0.268,0.268H176.997z M177.131,181.661
			c-0.161,0-0.268-0.107-0.268-0.268v-12.238c0-0.16,0.107-0.268,0.268-0.268h0.911c0.161,0,0.268,0.107,0.268,0.268v12.238
			c0,0.16-0.107,0.268-0.268,0.268H177.131z"/>
		<path fill="#70A83B" d="M182.404,178.608c-0.268-0.857-0.428-1.794-0.428-3.348c0-1.526,0.161-2.464,0.428-3.32
			c0.696-2.115,2.437-3.32,4.767-3.32c2.357,0,4.097,1.205,4.793,3.32c0.268,0.856,0.429,1.794,0.429,3.32
			c0,1.554-0.161,2.49-0.429,3.348c-0.696,2.115-2.437,3.32-4.793,3.32C184.841,181.929,183.101,180.724,182.404,178.608z
			 M190.572,178.153c0.241-0.724,0.348-1.5,0.348-2.893c0-1.365-0.107-2.143-0.348-2.865c-0.509-1.526-1.74-2.383-3.401-2.383
			c-1.633,0-2.865,0.856-3.374,2.383c-0.241,0.723-0.348,1.5-0.348,2.865c0,1.393,0.107,2.169,0.348,2.893
			c0.509,1.526,1.741,2.383,3.374,2.383C188.832,180.536,190.063,179.68,190.572,178.153z M186.475,166.719
			c-0.161,0-0.241-0.107-0.161-0.268l2.062-3.268c0.107-0.188,0.241-0.268,0.456-0.268h1.018c0.161,0,0.241,0.134,0.134,0.268
			l-2.356,3.268c-0.161,0.188-0.268,0.268-0.482,0.268H186.475z"/>
		<path fill="#70A83B" d="M120.27,203.973c-0.161,0-0.268-0.107-0.268-0.268v-7.552c0-2.544-1.151-3.83-3.374-3.83
			c-1.955,0-3.455,1.34-3.455,3.562v7.819c0,0.16-0.107,0.268-0.268,0.268h-0.91c-0.161,0-0.268-0.107-0.268-0.268v-7.552
			c0-2.544-1.125-3.83-3.347-3.83c-1.955,0-3.481,1.34-3.481,3.562v7.819c0,0.16-0.107,0.268-0.268,0.268h-0.911
			c-0.161,0-0.268-0.107-0.268-0.268v-12.238c0-0.161,0.107-0.268,0.268-0.268h0.911c0.161,0,0.268,0.106,0.268,0.268v1.526h0.027
			c0.643-1.259,1.981-2.062,3.776-2.062c1.981,0,3.321,0.83,3.963,2.383h0.027c0.75-1.473,2.115-2.383,4.204-2.383
			c2.892,0,4.553,1.767,4.553,4.873v7.9c0,0.16-0.107,0.268-0.268,0.268H120.27z"/>
		<path fill="#70A83B" d="M126.959,193.234c-0.134,0.107-0.295,0.107-0.402-0.027l-0.455-0.669c-0.081-0.134-0.054-0.268,0.08-0.375
			c0.911-0.776,2.276-1.231,4.07-1.231c3.321,0,4.66,1.098,4.66,4.23v8.543c0,0.16-0.107,0.268-0.268,0.268h-0.857
			c-0.161,0-0.268-0.107-0.268-0.268v-1.339h-0.026c-0.509,1.071-1.875,1.874-3.963,1.874c-2.571,0-4.285-1.285-4.285-3.775
			c0-2.544,1.741-3.776,4.847-3.776h3.241c0.107,0,0.161-0.054,0.161-0.16v-1.312c0-2.089-0.723-2.945-3.321-2.945
			C128.62,192.271,127.709,192.618,126.959,193.234z M133.494,200.036v-1.955c0-0.106-0.054-0.16-0.161-0.16h-3.053
			c-2.544,0-3.615,0.83-3.615,2.517c0,1.607,1.125,2.464,3.16,2.464C132.021,202.901,133.494,201.776,133.494,200.036z"/>
		<path fill="#70A83B" d="M138.417,202.446c-0.107-0.107-0.107-0.268,0-0.375l0.589-0.669c0.107-0.107,0.268-0.081,0.375,0
			c0.991,0.803,2.41,1.499,4.151,1.499c2.223,0,3.32-0.99,3.32-2.464c0-1.285-0.562-1.981-2.919-2.249l-1.285-0.134
			c-2.383-0.241-3.723-1.393-3.723-3.401c0-2.33,1.688-3.722,4.499-3.722c1.741,0,3.24,0.562,4.258,1.231
			c0.134,0.107,0.134,0.268,0.054,0.375l-0.482,0.643c-0.081,0.134-0.241,0.161-0.375,0.08c-0.83-0.481-2.196-0.99-3.535-0.99
			c-1.955,0-2.973,0.856-2.973,2.276c0,1.258,0.776,1.928,2.946,2.142l1.285,0.134c2.491,0.241,3.696,1.446,3.696,3.428
			c0,2.438-1.714,3.99-4.901,3.99C141.095,204.24,139.408,203.276,138.417,202.446z"/>
		<path fill="#70A83B" d="M151.027,202.446c-0.107-0.107-0.107-0.268,0-0.375l0.589-0.669c0.107-0.107,0.268-0.081,0.375,0
			c0.991,0.803,2.41,1.499,4.151,1.499c2.223,0,3.32-0.99,3.32-2.464c0-1.285-0.562-1.981-2.919-2.249l-1.285-0.134
			c-2.383-0.241-3.723-1.393-3.723-3.401c0-2.33,1.688-3.722,4.499-3.722c1.741,0,3.24,0.562,4.258,1.231
			c0.134,0.107,0.134,0.268,0.054,0.375l-0.482,0.643c-0.081,0.134-0.241,0.161-0.375,0.08c-0.83-0.481-2.196-0.99-3.535-0.99
			c-1.955,0-2.973,0.856-2.973,2.276c0,1.258,0.776,1.928,2.946,2.142l1.285,0.134c2.491,0.241,3.696,1.446,3.696,3.428
			c0,2.438-1.714,3.99-4.901,3.99C153.705,204.24,152.018,203.276,151.027,202.446z"/>
		<path fill="#70A83B" d="M164.762,187.798c-0.161,0-0.268-0.106-0.268-0.268v-1.5c0-0.16,0.107-0.268,0.268-0.268h1.178
			c0.161,0,0.268,0.107,0.268,0.268v1.5c0,0.161-0.107,0.268-0.268,0.268H164.762z M164.896,203.973
			c-0.161,0-0.268-0.107-0.268-0.268v-12.238c0-0.161,0.107-0.268,0.268-0.268h0.911c0.161,0,0.268,0.106,0.268,0.268v12.238
			c0,0.16-0.107,0.268-0.268,0.268H164.896z"/>
		<path fill="#70A83B" d="M174.105,203.973c-0.188,0-0.268-0.107-0.321-0.268l-4.633-12.238c-0.054-0.161,0.027-0.268,0.214-0.268
			h0.991c0.188,0,0.268,0.08,0.348,0.268l3.856,10.229h0.027l3.776-10.229c0.081-0.188,0.161-0.268,0.348-0.268h0.991
			c0.188,0,0.268,0.106,0.214,0.268l-4.633,12.238c-0.054,0.16-0.161,0.268-0.321,0.268H174.105z"/>
		<path fill="#70A83B" d="M183.744,193.234c-0.134,0.107-0.295,0.107-0.402-0.027l-0.455-0.669c-0.081-0.134-0.054-0.268,0.08-0.375
			c0.911-0.776,2.276-1.231,4.07-1.231c3.321,0,4.66,1.098,4.66,4.23v8.543c0,0.16-0.107,0.268-0.268,0.268h-0.857
			c-0.161,0-0.268-0.107-0.268-0.268v-1.339h-0.026c-0.509,1.071-1.875,1.874-3.963,1.874c-2.571,0-4.285-1.285-4.285-3.775
			c0-2.544,1.741-3.776,4.847-3.776h3.241c0.107,0,0.161-0.054,0.161-0.16v-1.312c0-2.089-0.723-2.945-3.321-2.945
			C185.404,192.271,184.493,192.618,183.744,193.234z M190.278,200.036v-1.955c0-0.106-0.054-0.16-0.161-0.16h-3.053
			c-2.544,0-3.615,0.83-3.615,2.517c0,1.607,1.125,2.464,3.16,2.464C188.805,202.901,190.278,201.776,190.278,200.036z"/>
	</g>
</g>
</svg>
